<svg xmlns="http://www.w3.org/2000/svg" viewBox="0 0 1440 420" width="1440" height="420" role="img" aria-label="MultivacLab energetic hero">
  <rect width="1440" height="420" fill="#FFEDD5"/>

  <g stroke="#1d1d1f" stroke-width="8" stroke-linejoin="round" stroke-linecap="round">
    <path d="M44 74h250l-34 90H8z" fill="#FDBA74"/>
    <path d="M1188 36h214l-34 108h-214z" fill="#F59E0B"/>
    <path d="M1070 278h326l-56 96h-318z" fill="#FDBA74"/>
    <path d="M80 292l118-58 90 64-122 58z" fill="#16A34A"/>
    <circle cx="1228" cy="224" r="62" fill="#EA580B"/>
    <circle cx="1302" cy="224" r="34" fill="#FFEDD5"/>
  </g>

  <g stroke="#1d1d1f" stroke-width="7" stroke-linecap="round">
    <path d="M350 82l48 38-48 38"/>
    <path d="M386 82l48 38-48 38"/>
    <path d="M1012 86l-60 78 72 10-74 92"/>
    <path d="M100 138h86"/>
    <path d="M64 178h148"/>
    <path d="M1172 332h124"/>
  </g>

  <g transform="translate(154 78)">
    <rect x="0" y="0" width="862" height="260" rx="22" fill="#FDBA74" stroke="#1d1d1f" stroke-width="9"/>
    <rect x="22" y="24" width="818" height="212" rx="18" fill="#FFEDD5" stroke="#1d1d1f" stroke-width="5"/>
    <text x="54" y="102" font-family="Limelight, Impact, 'Arial Black', sans-serif" font-size="74" font-weight="400" fill="#EA580B" stroke="#1d1d1f" stroke-width="2">
      MultivacLab
    </text>
    <text x="58" y="154" font-family="Inter, Arial, sans-serif" font-size="29" font-weight="800" fill="#EA580B">
      AI skills, tools &amp; digital life automations
    </text>
    <text x="58" y="200" font-family="'PingFang SC', 'Noto Sans SC', Arial, sans-serif" font-size="30" font-weight="800" fill="#EA580C">
      把重复劳动变成自动化燃料
    </text>
  </g>

  <g transform="translate(1030 128)" stroke="#1d1d1f" stroke-width="7" stroke-linejoin="round">
    <rect x="0" y="0" width="210" height="142" rx="20" fill="#EA580B"/>
    <path d="M40 98V42l52 48 52-48v56" fill="none" stroke="#FFEDD5" stroke-width="16" stroke-linecap="round"/>
    <circle cx="166" cy="104" r="18" fill="#F59E0B"/>
  </g>

  <text x="1274" y="388" text-anchor="middle" font-family="JetBrains Mono, ui-monospace, monospace" font-size="16" font-weight="800" fill="#EA580C">
    energetic.system / 2026
  </text>
</svg>
