<svg xmlns="http://www.w3.org/2000/svg" viewBox="0 0 1440 420" width="1440" height="420" role="img" aria-label="MultivacLab — AI grocery store">
  <defs>
    <filter id="cardShadow" x="-20%" y="-30%" width="140%" height="180%">
      <feDropShadow dx="0" dy="18" stdDeviation="22" flood-color="#000000" flood-opacity="0.12"/>
    </filter>
  </defs>

  <rect width="1440" height="420" fill="#ffffff"/>
  <rect x="0" y="0" width="1440" height="420" fill="#f5f5f7" opacity="0.72"/>

  <g filter="url(#cardShadow)" opacity="0.96">
    <rect x="930" y="72" width="270" height="168" rx="34" fill="#ffffff"/>
    <rect x="1000" y="184" width="220" height="136" rx="30" fill="#ffffff"/>
    <rect x="1110" y="108" width="130" height="214" rx="34" fill="#1d1d1f"/>
  </g>

  <g fill="none" stroke="#d2d2d7" stroke-width="1.2" opacity="0.75">
    <path d="M974 124h158"/>
    <path d="M974 158h118"/>
    <path d="M1038 228h116"/>
    <path d="M1038 258h88"/>
  </g>

  <circle cx="1180" cy="154" r="8" fill="#0071e3"/>
  <circle cx="1158" cy="154" r="8" fill="#86868b" opacity="0.28"/>

  <text x="132" y="180" font-family="-apple-system, BlinkMacSystemFont, 'SF Pro Display', 'Helvetica Neue', Arial, sans-serif" font-size="76" font-weight="600" fill="#1d1d1f">
    MultivacLab
  </text>

  <text x="136" y="230" font-family="-apple-system, BlinkMacSystemFont, 'SF Pro Text', 'Helvetica Neue', Arial, sans-serif" font-size="25" font-weight="400" fill="#6e6e73">
    AI skills, tools, Obsidian plugins, and digital life automations.
  </text>

  <text x="136" y="270" font-family="-apple-system, BlinkMacSystemFont, 'SF Pro Text', 'PingFang SC', 'Helvetica Neue', Arial, sans-serif" font-size="23" font-weight="400" fill="#1d1d1f">
    把重复劳动沉淀成可复用的数字工具
  </text>

  <rect x="136" y="306" width="172" height="40" rx="20" fill="#0071e3"/>
  <text x="222" y="332" text-anchor="middle" font-family="-apple-system, BlinkMacSystemFont, 'SF Pro Text', 'PingFang SC', 'Helvetica Neue', Arial, sans-serif" font-size="16" font-weight="600" fill="#ffffff">
    wdblink的AI杂货铺
  </text>

  <text x="1320" y="370" text-anchor="end" font-family="-apple-system, BlinkMacSystemFont, 'SF Pro Text', 'Helvetica Neue', Arial, sans-serif" font-size="13" fill="#6e6e73">
    EST. 2026
  </text>
</svg>
